<?xml version="1.0" standalone="no"?>
<!DOCTYPE svg PUBLIC "-//W3C//DTD SVG 20010904//EN"
 "http://www.w3.org/TR/2001/REC-SVG-20010904/DTD/svg10.dtd">
<svg version="1.0" xmlns="http://www.w3.org/2000/svg"
 width="512.000000pt" height="512.000000pt" viewBox="0 0 512.000000 512.000000"
 preserveAspectRatio="xMidYMid meet">

<g transform="translate(0.000000,512.000000) scale(0.100000,-0.100000)"
fill="#000000" stroke="none">
<path d="M618 4836 l-233 -174 -67 0 c-125 -1 -236 -74 -292 -192 -21 -45 -21
-48 -24 -1084 -3 -1172 -5 -1135 69 -1285 54 -109 162 -221 264 -273 39 -19
391 -161 783 -314 391 -153 709 -281 705 -285 -6 -4 -1467 -575 -1626 -635
-16 -6 -17 6 -17 157 0 145 2 167 21 206 28 58 67 86 173 123 170 60 353 161
441 244 27 26 35 41 35 68 0 87 -79 115 -161 57 -152 -105 -240 -152 -378
-201 -137 -48 -205 -98 -259 -188 -47 -81 -53 -130 -50 -417 3 -266 3 -269 29
-324 51 -109 136 -175 254 -200 51 -10 71 -10 125 3 36 8 534 198 1107 422
l1043 406 1062 -417 1063 -418 95 0 c85 0 101 3 148 28 70 37 128 97 161 166
26 56 26 58 29 329 3 231 1 282 -13 330 -23 76 -58 134 -110 180 -53 47 -81
61 -220 112 -122 45 -219 97 -316 170 -68 51 -189 165 -189 178 0 4 98 46 218
92 119 46 242 96 272 111 132 65 237 172 299 302 58 125 56 81 56 1237 l0
1065 -22 47 c-31 68 -104 142 -165 168 -29 12 -86 25 -128 29 l-75 7 -229 172
c-170 127 -237 172 -257 172 -52 0 -1053 -237 -1134 -269 -181 -70 -365 -218
-475 -383 -33 -49 -60 -94 -60 -99 0 -21 -18 -6 -40 34 -119 215 -341 394
-585 471 -102 33 -1027 246 -1065 246 -22 0 -87 -43 -262 -174z m774 -121
c227 -52 444 -105 483 -116 275 -82 498 -306 576 -579 14 -48 19 -98 19 -192
0 -121 1 -128 26 -157 33 -39 80 -42 121 -7 28 24 28 25 34 178 5 158 19 219
70 320 89 175 242 320 414 396 91 40 144 54 595 157 206 47 383 88 393 91 16
5 17 -41 17 -860 l0 -866 -23 -5 c-12 -3 -225 -52 -472 -109 -248 -57 -487
-118 -530 -135 -157 -60 -315 -171 -414 -291 l-51 -61 0 211 c0 232 -5 257
-58 279 -37 16 -77 5 -102 -26 -19 -24 -20 -41 -20 -247 l0 -221 -32 40 c-117
147 -293 270 -468 329 -56 18 -973 236 -996 236 -2 0 -4 234 -4 520 l0 521
-25 24 c-36 37 -86 37 -125 -1 l-25 -24 -3 -536 -3 -535 -135 -107 c-75 -59
-140 -108 -145 -110 -5 -2 -9 339 -9 845 l1 848 143 107 144 107 4 -104 c3
-93 6 -107 27 -129 33 -35 92 -36 126 -1 24 23 25 29 25 165 0 77 2 140 4 140
3 0 190 -43 418 -95z m3086 -85 l141 -105 1 -916 0 -915 -837 -327 c-461 -180
-843 -327 -849 -327 -7 0 -39 13 -72 30 -32 16 -87 37 -121 46 -59 17 -62 19
-56 43 3 14 20 55 38 91 100 201 288 360 504 428 54 17 297 77 541 133 l443
101 58 -46 c32 -25 70 -50 84 -57 55 -25 117 18 117 80 0 43 -16 64 -98 126
l-52 39 0 844 c0 464 4 842 9 840 4 -1 72 -50 149 -108z m-4158 -1093 l0 -944
22 -20 c13 -11 423 -177 913 -368 597 -232 910 -359 950 -385 88 -57 153 -89
212 -106 l53 -15 0 -74 0 -74 -28 10 c-15 5 -529 207 -1142 447 l-1115 437 -3
964 c-2 883 -1 966 15 998 18 39 65 73 101 73 l22 0 0 -943z m4558 917 c13 -8
32 -29 42 -47 19 -31 20 -58 20 -998 0 -764 -3 -968 -12 -972 -22 -8 -2232
-869 -2255 -878 -23 -8 -23 -7 -23 66 l0 74 42 12 c52 14 165 70 227 112 28
20 390 166 941 381 644 251 901 355 918 373 l22 24 0 941 0 940 28 -7 c15 -3
37 -13 50 -21z m-3528 -1644 c495 -114 557 -131 637 -167 131 -59 271 -177
352 -296 32 -48 101 -187 101 -205 0 -5 -28 -17 -63 -26 -35 -10 -89 -30 -122
-47 -32 -16 -63 -29 -70 -29 -15 0 -1577 609 -1587 619 -7 6 297 251 312 251
3 0 201 -45 440 -100z m29 -1025 c638 -250 1170 -455 1180 -455 11 0 545 205
1188 455 642 250 1169 453 1170 451 2 -1 -10 -30 -27 -63 -34 -67 -123 -159
-187 -191 -22 -12 -325 -132 -673 -267 -348 -135 -646 -253 -661 -261 -80 -41
-56 -164 32 -164 18 0 178 57 355 126 l323 125 113 -113 c168 -168 330 -270
555 -349 106 -37 144 -64 172 -122 20 -41 21 -58 19 -209 l-3 -165 -940 369
c-517 202 -948 368 -958 368 -23 0 -58 -19 -74 -39 -21 -27 -16 -85 10 -109
13 -13 430 -181 983 -398 527 -206 963 -379 967 -383 11 -11 -38 -68 -74 -86
-64 -33 -64 -33 -1187 406 -593 232 -1089 422 -1104 421 -15 0 -510 -189
-1100 -419 -854 -332 -1082 -418 -1119 -418 -34 0 -56 7 -86 28 -44 31 -70 72
-50 80 7 3 442 172 967 377 525 204 965 381 978 393 27 25 30 85 5 116 -12 13
-314 136 -858 349 -462 181 -858 338 -881 350 -60 30 -129 99 -169 166 -31 53
-43 86 -31 86 2 0 526 -205 1165 -455z m1326 155 l40 -13 -55 -26 c-74 -35
-190 -36 -264 -3 -27 13 -46 25 -43 29 32 31 236 40 322 13z"/>
<path d="M1185 4495 c-14 -13 -26 -34 -26 -47 -5 -84 2 -87 351 -168 168 -38
336 -79 375 -91 117 -35 228 -100 331 -192 28 -26 63 -51 77 -56 54 -21 117
28 117 89 0 30 -106 138 -188 193 -90 60 -194 111 -277 136 -106 32 -672 161
-706 161 -18 0 -39 -9 -54 -25z"/>
<path d="M3543 4450 c-354 -82 -415 -100 -518 -152 -144 -72 -297 -196 -311
-252 -10 -43 6 -79 47 -99 47 -22 70 -14 142 51 93 85 193 145 305 183 29 10
191 50 360 89 169 39 320 76 335 82 92 36 68 169 -30 167 -21 0 -170 -31 -330
-69z"/>
<path d="M1181 3957 c-27 -30 -31 -89 -6 -117 23 -26 35 -29 365 -105 328 -76
385 -92 472 -136 81 -41 135 -78 210 -145 50 -45 67 -54 97 -54 66 0 106 60
81 121 -26 63 -222 206 -364 267 -88 37 -730 192 -796 192 -25 0 -43 -7 -59
-23z"/>
<path d="M3720 3953 c-58 -14 -208 -49 -333 -79 -319 -74 -464 -144 -617 -293
-50 -50 -60 -64 -60 -93 0 -51 37 -88 89 -88 34 0 48 8 98 53 103 94 214 160
338 198 33 10 196 50 363 88 167 39 312 75 322 81 46 25 54 97 15 135 -31 32
-75 32 -215 -2z"/>
<path d="M1215 3440 c-66 -26 -77 -127 -17 -159 10 -5 155 -41 323 -80 167
-39 327 -77 355 -86 125 -37 241 -105 347 -202 49 -45 64 -53 97 -53 30 0 43
6 64 31 47 56 29 100 -77 189 -88 75 -197 141 -299 180 -42 16 -220 63 -395
104 -376 87 -372 86 -398 76z"/>
<path d="M3835 3439 c-133 -26 -621 -143 -675 -161 -194 -63 -450 -248 -450
-325 0 -55 37 -92 91 -93 30 0 47 10 100 58 105 96 188 146 309 187 36 12 209
55 385 96 352 81 365 86 365 153 0 38 -31 81 -65 89 -11 3 -38 1 -60 -4z"/>
</g>
</svg>
