<?xml version="1.0" standalone="no"?>
<!DOCTYPE svg PUBLIC "-//W3C//DTD SVG 20010904//EN"
 "http://www.w3.org/TR/2001/REC-SVG-20010904/DTD/svg10.dtd">
<svg version="1.0" xmlns="http://www.w3.org/2000/svg"
 width="512.000000pt" height="512.000000pt" viewBox="0 0 512.000000 512.000000"
 preserveAspectRatio="xMidYMid meet">

<g transform="translate(0.000000,512.000000) scale(0.100000,-0.100000)"
fill="#000000" stroke="none">
<path d="M1504 4879 c-98 -37 -179 -130 -205 -232 -7 -28 -16 -46 -23 -43
-102 44 -228 46 -312 6 -61 -30 -133 -101 -162 -160 -15 -32 -46 -182 -102
-500 l-80 -454 -183 -185 c-101 -102 -212 -224 -246 -270 -118 -160 -177 -319
-188 -506 -12 -204 45 -322 317 -655 298 -365 305 -395 191 -795 -42 -149
-104 -333 -195 -584 -65 -178 -68 -210 -27 -252 24 -24 38 -29 76 -29 70 0 85
23 171 255 202 546 276 829 260 998 -15 159 -75 265 -306 542 -148 177 -215
270 -252 352 -42 95 -18 282 57 439 49 101 123 190 338 402 206 205 195 200
256 123 42 -53 63 -114 64 -186 0 -51 -9 -85 -67 -229 -71 -180 -79 -220 -53
-260 22 -33 34 -39 152 -71 197 -53 344 -141 495 -295 52 -53 113 -127 135
-164 90 -151 123 -178 193 -155 37 12 72 60 72 99 0 14 -20 61 -45 105 -153
268 -411 485 -698 586 -49 17 -67 28 -63 39 2 8 23 64 45 123 48 125 59 202
41 304 -25 154 -141 316 -256 359 l-50 19 64 360 c35 198 71 374 79 392 10 21
30 40 58 53 37 18 49 20 84 10 58 -15 91 -59 91 -120 0 -26 -20 -159 -45 -296
-25 -137 -45 -264 -45 -281 0 -71 97 -127 155 -89 13 9 32 27 40 40 9 13 48
211 94 478 43 250 84 465 90 477 17 31 70 61 109 61 60 0 110 -39 125 -99 3
-13 -41 -288 -99 -615 -57 -325 -104 -601 -104 -614 0 -14 14 -38 34 -58 27
-27 42 -34 73 -34 21 0 48 7 60 15 39 28 49 68 153 674 55 323 60 345 86 372
80 83 214 35 214 -76 0 -24 -49 -326 -110 -670 -102 -582 -109 -629 -96 -660
36 -86 178 -80 200 8 6 24 146 811 146 821 0 12 51 6 80 -9 64 -33 61 14 58
-968 l-3 -892 -23 -80 c-30 -102 -88 -225 -187 -395 -178 -306 -261 -533 -321
-887 -32 -189 -31 -233 1 -271 14 -17 38 -33 54 -37 32 -7 88 13 110 38 7 9
21 72 31 139 27 191 48 281 101 444 56 170 142 354 247 525 39 64 77 132 86
153 8 20 17 36 20 36 2 0 15 -24 29 -52 13 -29 45 -87 72 -128 182 -284 306
-625 350 -965 16 -129 30 -159 80 -184 42 -20 102 2 128 47 18 31 19 40 8 125
-49 387 -154 693 -350 1025 -93 157 -156 290 -183 387 -23 80 -23 83 -26 982
l-3 903 33 35 c22 24 45 38 70 42 l36 5 11 -53 c6 -30 40 -220 76 -424 64
-365 65 -370 95 -397 59 -54 157 -26 176 48 3 13 -45 306 -106 651 -62 345
-113 644 -113 664 0 103 128 158 207 89 18 -17 37 -43 41 -58 4 -15 44 -238
90 -497 84 -469 84 -470 114 -497 58 -51 157 -24 175 47 4 15 -39 273 -104
625 -122 669 -121 650 -51 697 59 40 150 21 182 -38 9 -17 169 -895 169 -929
0 -22 54 -70 85 -76 42 -8 66 0 99 33 36 35 34 59 -19 351 -25 135 -45 267
-45 293 0 60 34 104 91 119 54 15 122 -14 144 -62 8 -18 44 -195 78 -393 71
-406 73 -356 -13 -394 -53 -23 -144 -119 -179 -189 -17 -34 -38 -90 -46 -124
-28 -119 -18 -198 47 -366 22 -57 38 -104 36 -106 -1 -1 -47 -19 -100 -40
-270 -105 -500 -301 -649 -554 -71 -120 -68 -181 9 -218 48 -22 107 -6 130 38
162 293 392 482 698 572 98 29 124 40 148 67 37 42 34 55 -49 266 -66 165 -67
170 -63 244 5 86 29 138 92 199 l36 34 206 -204 c113 -113 226 -233 250 -267
81 -112 133 -252 149 -403 13 -121 -47 -232 -271 -505 -277 -339 -311 -410
-301 -639 6 -142 29 -246 105 -481 50 -151 210 -591 229 -628 17 -34 74 -60
113 -52 42 9 82 57 82 98 0 18 -29 114 -65 213 -134 366 -219 638 -248 792
-17 91 -8 186 26 252 36 72 74 124 225 310 163 200 210 267 260 371 62 131 74
229 45 394 -39 222 -133 372 -413 656 l-193 197 -80 454 c-88 505 -95 525
-180 602 -72 65 -143 89 -245 84 -56 -3 -93 -11 -121 -25 l-41 -22 -7 37 c-18
106 -108 213 -211 251 -61 23 -155 27 -219 10 -117 -32 -211 -138 -239 -270
-5 -25 -8 -25 -84 -26 -135 -1 -242 -67 -301 -184 -42 -84 -46 -141 -22 -285
26 -150 26 -144 -3 -144 -34 0 -98 -24 -145 -56 l-41 -27 -41 27 c-47 32 -111
56 -145 56 -29 0 -29 -6 -3 144 24 144 20 201 -22 285 -59 117 -166 183 -301
184 -76 1 -79 1 -84 26 -28 128 -103 220 -214 262 -67 26 -177 25 -246 -2z"/>
</g>
</svg>
