<?xml version="1.0" standalone="no"?>
<!DOCTYPE svg PUBLIC "-//W3C//DTD SVG 20010904//EN"
 "http://www.w3.org/TR/2001/REC-SVG-20010904/DTD/svg10.dtd">
<svg version="1.0" xmlns="http://www.w3.org/2000/svg"
 width="512.000000pt" height="512.000000pt" viewBox="0 0 512.000000 512.000000"
 preserveAspectRatio="xMidYMid meet">

<g transform="translate(0.000000,512.000000) scale(0.100000,-0.100000)"
fill="#000000" stroke="none">
<path d="M2011 5064 c-28 -35 -26 -69 4 -99 30 -30 64 -32 99 -4 19 15 26 30
26 54 0 70 -87 103 -129 49z"/>
<path d="M1581 4834 c-26 -33 -27 -65 -3 -93 44 -54 132 -24 132 45 0 71 -86
103 -129 48z"/>
<path d="M945 4665 c-144 -26 -273 -94 -380 -200 -83 -82 -142 -177 -182 -290
-25 -73 -27 -93 -27 -220 0 -127 2 -147 27 -220 50 -141 129 -254 240 -341
362 -283 883 -163 1087 251 50 100 73 189 74 281 1 81 -12 105 -70 124 -45 15
-94 -8 -122 -58 -31 -56 -100 -119 -162 -150 -49 -24 -67 -27 -155 -27 -95 0
-103 2 -163 34 -75 41 -125 94 -161 170 -22 48 -26 69 -26 151 0 85 3 101 28
150 35 67 76 112 144 156 64 42 82 83 59 139 -11 25 -26 40 -50 50 -42 18 -67
18 -161 0z m-101 -232 c-118 -196 -95 -438 56 -606 96 -108 229 -167 374 -167
115 0 210 29 299 92 33 24 34 11 3 -50 -64 -126 -186 -228 -331 -278 -65 -22
-98 -27 -180 -28 -172 -1 -299 55 -416 182 -219 237 -189 626 64 820 50 39
142 92 158 92 4 0 -8 -26 -27 -57z"/>
<path d="M3220 4646 c-117 -33 -226 -118 -276 -218 -29 -57 -171 -585 -180
-668 -14 -123 36 -251 136 -350 73 -73 144 -112 253 -139 l72 -19 0 -355 c0
-195 -3 -359 -7 -363 -4 -4 -143 44 -309 105 -165 62 -316 115 -334 118 -36 6
-125 -29 -125 -49 0 -13 -57 -3 -128 24 -40 15 -77 42 -142 104 -49 46 -100
86 -115 90 -35 9 -93 -15 -119 -49 -18 -25 -21 -42 -21 -155 0 -112 3 -132 22
-168 12 -23 95 -111 188 -200 l166 -159 457 -171 c298 -112 458 -177 460 -187
2 -8 -9 -24 -24 -36 -26 -21 -33 -21 -496 -21 -445 0 -472 -1 -529 -20 -78
-27 -123 -56 -181 -117 -100 -107 -118 -182 -118 -488 0 -121 5 -247 10 -280
22 -133 115 -257 239 -318 l66 -32 780 -3 780 -2 80 -85 80 -85 137 0 c131 0
138 1 166 25 39 32 56 76 50 128 l-4 42 70 34 c90 44 189 141 233 231 36 71
63 166 63 217 l0 33 78 0 c89 0 115 -13 131 -63 12 -38 141 -716 141 -741 0
-10 -13 -31 -29 -47 l-29 -29 -2352 0 -2352 0 -29 29 c-16 16 -29 38 -29 48 0
35 139 742 149 762 7 11 20 25 31 31 12 6 238 10 649 10 l630 0 27 23 c35 31
38 82 5 109 -22 17 -56 18 -663 18 -462 0 -652 -3 -680 -12 -52 -15 -122 -78
-141 -126 -17 -41 -157 -764 -157 -808 0 -79 68 -180 145 -215 38 -18 133 -19
2415 -19 2282 0 2377 1 2415 19 77 35 145 136 145 215 0 44 -140 767 -157 808
-19 48 -89 111 -141 126 -22 7 -76 12 -120 12 l-81 0 -4 623 c-4 683 -5 692
-72 892 -121 361 -391 669 -660 755 -22 7 -43 14 -46 16 -4 2 17 40 46 84 69
105 140 321 165 502 20 140 -26 274 -126 373 -68 68 -108 86 -338 150 -212 59
-276 66 -366 41z m327 -185 c205 -56 224 -64 274 -118 45 -47 67 -89 78 -150
10 -52 -5 -163 -21 -163 -13 0 -347 97 -810 236 -24 7 -23 26 7 83 38 76 99
128 175 152 55 16 122 7 297 -40z m-110 -462 c224 -66 408 -121 409 -122 1 -1
-8 -34 -21 -74 -83 -263 -328 -423 -603 -392 -131 15 -230 80 -278 184 -42 93
-41 124 12 335 31 123 53 190 61 190 7 0 196 -54 420 -121z m338 -644 c106
-17 234 -95 346 -212 182 -189 293 -421 335 -696 12 -81 14 -220 12 -790 l-3
-692 -33 -67 c-40 -81 -102 -148 -171 -182 -28 -14 -55 -26 -60 -26 -5 0 -31
55 -57 123 -78 199 -140 246 -336 255 -103 4 -107 5 -113 29 -10 41 -36 73
-76 94 -36 18 -61 19 -394 19 l-355 0 0 209 0 209 173 4 c166 3 174 4 218 30
48 28 93 85 104 129 6 23 13 27 58 32 99 10 187 64 246 151 35 51 141 331 141
372 0 35 -22 59 -61 69 -47 12 -73 -25 -134 -189 -62 -168 -85 -205 -148 -235
-81 -39 -99 -35 -569 140 -238 89 -437 166 -442 170 -8 7 86 284 103 301 3 3
161 -52 350 -123 350 -131 372 -137 404 -101 8 10 61 141 117 292 111 298 130
331 202 351 71 19 151 -12 188 -73 27 -45 25 -110 -5 -188 -14 -35 -25 -75
-25 -89 0 -33 37 -71 70 -71 44 0 67 26 99 115 54 151 39 262 -50 359 -66 72
-130 100 -229 100 -118 1 -203 -47 -271 -153 l-29 -45 0 141 0 141 73 16 c40
9 106 34 147 55 76 39 83 40 175 26z m-1535 -740 c36 -18 82 -38 102 -44 l37
-12 -30 -82 c-17 -45 -31 -83 -33 -84 -1 -2 -57 50 -124 115 l-122 117 0 53 0
52 52 -41 c29 -22 82 -56 118 -74z m480 -1195 l0 -210 -95 0 c-82 0 -98 -3
-115 -20 -30 -30 -27 -83 6 -109 26 -21 36 -21 530 -21 l504 0 0 -195 0 -195
-657 0 -658 0 -50 24 c-62 29 -107 76 -137 141 -22 48 -23 60 -23 315 0 255 1
267 23 315 25 54 50 85 96 118 59 42 90 46 339 47 l237 0 0 -210z m1204 -524
c14 -9 32 -29 40 -44 13 -25 136 -340 136 -348 0 -2 -30 -4 -67 -4 l-68 1 -64
75 c-69 82 -89 94 -157 94 l-44 0 0 118 c0 65 3 122 8 126 13 15 189 0 216
-18z"/>
<path d="M3653 1705 c-28 -20 -37 -59 -19 -93 8 -15 84 -96 168 -179 142 -140
157 -153 191 -153 27 0 41 7 56 26 41 53 34 65 -147 246 -142 143 -172 168
-198 168 -16 0 -39 -7 -51 -15z"/>
<path d="M1941 4462 c-33 -26 -31 -79 3 -109 43 -37 87 -27 115 24 36 68 -57
135 -118 85z"/>
<path d="M715 906 c-65 -28 -79 -59 -108 -237 -15 -90 -27 -181 -27 -202 0
-50 23 -93 63 -117 30 -19 53 -20 462 -20 409 0 432 1 462 20 64 39 68 53 68
270 0 220 -5 240 -75 279 -37 20 -50 21 -426 21 -301 -1 -396 -4 -419 -14z
m773 -283 l3 -143 -381 0 c-209 0 -380 3 -380 8 0 14 40 257 45 270 3 10 80
12 357 10 l353 -3 3 -142z"/>
</g>
</svg>
